# xmcd
#
# Track frame offsets: 
#        188
#        15138
#        28028
#        40448
#        55070
#        67198
#        79920
#        96475
#        109888
#        121700
#        139613
#        151925
#        167513
#        183013
#        194400
#        206693
#
# Disc length: 2967 seconds
#
# Revision: 2
# Processed by: cddbd v1.5.2PL0 Copyright (c) Steve Scherf et al.
# Submitted via: ExactAudioCopy v0.99pb5
#
DISCID=d10b9510
DTITLE=Various Artist - The American Dream - CD 1
DYEAR=1992
DGENRE=Country
TTITLE0=Alabama - Born country
TTITLE1=Kenny Rogers and The First Edition - Ruby, don't take your love 
TTITLE1=to town
TTITLE2=Alan Jackson - Dallas
TTITLE3=Glen Campbell - Rhinestone cowboy
TTITLE4=Dolly Parton - Jolene
TTITLE5=Don Williams - Some broken hearts never mend
TTITLE6=Eddie Rabbitt - Rocky mountain music
TTITLE7=Crystal Gayle - Why have left the one you left me for
TTITLE8=Johnny Cash - Ring of fire
TTITLE9=Emmylou Harris with Nicolette Larson - Hello stranger
TTITLE10=Willie Nelson - On the road again
TTITLE11=Judds - John Deere tractor
TTITLE12=Oak Ridge Boys - Lucky moon
TTITLE13=Tanya Tucker - Pecos promenade
TTITLE14=Dwight Yoakam - The distance between you and me
TTITLE15=Billie Jo Spears - Blanket on the ground
EXTD=
EXTT0=
EXTT1=
EXTT2=
EXTT3=
EXTT4=
EXTT5=
EXTT6=
EXTT7=
EXTT8=
EXTT9=
EXTT10=
EXTT11=
EXTT12=
EXTT13=
EXTT14=
EXTT15=
PLAYORDER=
